<svg xmlns="http://www.w3.org/2000/svg" width="800" height="600" viewBox="0 0 800 600">
  <defs>
    <linearGradient id="bg" x1="0" y1="0" x2="1" y2="1">
      <stop offset="0" stop-color="#0B1020"/>
      <stop offset="0.5" stop-color="#1E2447"/>
      <stop offset="1" stop-color="#3B0A33"/>
    </linearGradient>
    <linearGradient id="scan" x1="0" y1="0" x2="1" y2="0">
      <stop offset="0" stop-color="#22D3EE" stop-opacity="0.8"/>
      <stop offset="0.5" stop-color="#F472B6" stop-opacity="0.9"/>
      <stop offset="1" stop-color="#A78BFA" stop-opacity="0.8"/>
    </linearGradient>
  </defs>
  <rect width="800" height="600" fill="url(#bg)"/>
  <g fill="none" stroke-linecap="round" stroke-linejoin="round">
    <path d="M0 220 L120 130 L260 280 L420 120 L560 320 L720 160 L800 260 L800 320 L560 380 L420 190 L260 340 L120 200 L0 290 Z" stroke="url(#scan)" stroke-width="3" opacity="0.5"/>
  </g>
  <rect x="0" y="90" width="800" height="3" fill="#22D3EE" opacity="0.35">
    <animate attributeName="y" values="90;510;90" dur="6s" repeatCount="indefinite"/>
  </rect>
  <rect x="0" y="480" width="800" height="2" fill="#F472B6" opacity="0.35">
    <animate attributeName="y" values="480;60;480" dur="7s" repeatCount="indefinite"/>
  </rect>
  <g fill="#67E8F9" opacity="0.8">
    <rect x="150" y="340" width="58" height="8"/><rect x="340" y="200" width="8" height="58"/>
    <rect x="520" y="360" width="52" height="8"/><rect x="620" y="240" width="8" height="52"/>
  </g>
</svg>