<svg xmlns="http://www.w3.org/2000/svg" viewBox="0 0 400 200">
  <defs>
    <linearGradient id="bg" x1="0" y1="0" x2="0" y2="1">
      <stop offset="0" stop-color="#142821"/><stop offset="1" stop-color="#0F1712"/>
    </linearGradient>
    <radialGradient id="halo" cx="0.5" cy="0.4" r="0.55">
      <stop offset="0" stop-color="#74B98E" stop-opacity="0.28"/><stop offset="1" stop-color="#74B98E" stop-opacity="0"/>
    </radialGradient>
    <radialGradient id="orb" cx="0.5" cy="0.5" r="0.5">
      <stop offset="0" stop-color="#9CCCB1" stop-opacity="0.95"/><stop offset="0.5" stop-color="#4C9A6B" stop-opacity="0.4"/><stop offset="1" stop-color="#4C9A6B" stop-opacity="0"/>
    </radialGradient>
    <linearGradient id="card" x1="0" y1="0" x2="0" y2="1">
      <stop offset="0" stop-color="#1C2C21" stop-opacity="0.96"/><stop offset="1" stop-color="#15241C" stop-opacity="0.96"/>
    </linearGradient>
    <linearGradient id="ground" x1="0" y1="0" x2="0" y2="1">
      <stop offset="0" stop-color="#2F7A4D" stop-opacity="0.5"/><stop offset="1" stop-color="#1F5C3A" stop-opacity="0"/>
    </linearGradient>
  </defs>
  <rect width="400" height="200" fill="url(#bg)"/>
  <rect width="400" height="200" fill="url(#halo)"/>
  <circle cx="330" cy="40" r="30" fill="url(#orb)"/>
  <circle cx="52" cy="46" r="16" fill="url(#orb)"/>
  <g opacity="0.9">
    <path d="M38 176V108l26 22 26-22v68Z" fill="#2F7A4D" opacity="0.8"/>
    <path d="M186 176V96l30 26 30-26v80Z" fill="#25603D" opacity="0.85"/>
    <path d="M318 176V112l26 22 26-22v64Z" fill="#2F7A4D" opacity="0.8"/>
  </g>
  <g fill="#74B98E" opacity="0.9">
    <circle cx="64" cy="108" r="7"/>
    <circle cx="216" cy="98" r="7"/>
    <circle cx="344" cy="112" r="7"/>
  </g>
  <path d="M0 176c90-12 180-12 270 0s90 10 130 0v24H0Z" fill="url(#ground)"/>
  <path d="M0 188c80-8 170-8 260 0 50 4 90 4 140 0v12H0Z" fill="#0B2416" opacity="0.8"/>
  <g filter="drop-shadow(0 0 16px rgba(116,185,142,0.4))">
    <rect x="112" y="64" width="176" height="76" rx="14" fill="url(#card)" stroke="#74B98E" stroke-width="1.5" stroke-opacity="0.7"/>
    <rect x="132" y="84" width="76" height="9" rx="4.5" fill="#74B98E"/>
    <rect x="216" y="84" width="52" height="9" rx="4.5" fill="#9CCCB1" opacity="0.75"/>
    <rect x="132" y="102" width="112" height="6" rx="3" fill="#9CB0A3" opacity="0.75"/>
    <rect x="132" y="116" width="88" height="6" rx="3" fill="#788D80" opacity="0.6"/>
    <rect x="132" y="132" width="64" height="5" rx="2.5" fill="#74B98E" opacity="0.9"/>
  </g>
  <g fill="#74B98E" opacity="0.35">
    <circle cx="60" cy="124" r="2"/>
    <circle cx="96" cy="134" r="1.6"/>
    <circle cx="318" cy="126" r="2"/>
    <circle cx="288" cy="136" r="1.6"/>
  </g>
  <path d="M128 152c14 8 26 8 38 0" fill="none" stroke="#74B98E" stroke-width="2" stroke-linecap="round" opacity="0.5"/>
  <path d="M240 152c12 8 24 8 36 0" fill="none" stroke="#74B98E" stroke-width="2" stroke-linecap="round" opacity="0.5"/>
</svg>
