<svg xmlns="http://www.w3.org/2000/svg" viewBox="0 0 400 200">
  <defs>
    <linearGradient id="bg" x1="0" y1="0" x2="0" y2="1">
      <stop offset="0" stop-color="#FCFAF6"/><stop offset="1" stop-color="#EFECE5"/>
    </linearGradient>
    <linearGradient id="flow" x1="0" y1="0" x2="1" y2="0">
      <stop offset="0" stop-color="#5B82A6" stop-opacity="0.35"/><stop offset="0.5" stop-color="#FF8A65" stop-opacity="0.5"/><stop offset="1" stop-color="#5B82A6" stop-opacity="0.35"/>
    </linearGradient>
    <linearGradient id="card" x1="0" y1="0" x2="0" y2="1">
      <stop offset="0" stop-color="#FFFFFF"/><stop offset="1" stop-color="#FDFCF9"/>
    </linearGradient>
    <radialGradient id="glow" cx="0.5" cy="0.4" r="0.55">
      <stop offset="0" stop-color="#FF8A65" stop-opacity="0.28"/><stop offset="1" stop-color="#FF8A65" stop-opacity="0"/>
    </radialGradient>
  </defs>
  <rect width="400" height="200" fill="url(#bg)"/>
  <rect width="400" height="200" fill="url(#glow)"/>
  <path d="M0 120c60-24 120-24 180 0s120 24 180 0 40-10 40-10v90H0Z" fill="url(#flow)"/>
  <path d="M0 142c70-18 140-18 210 0s130 18 190 0" fill="none" stroke="#5B82A6" stroke-width="2.5" stroke-linecap="round" opacity="0.5"/>
  <path d="M0 158c60-14 120-14 180 0s130 14 190 0" fill="none" stroke="#FF8A65" stroke-width="2.5" stroke-linecap="round" opacity="0.5"/>
  <g opacity="0.85">
    <circle cx="48" cy="84" r="5" fill="#5B82A6"/>
    <circle cx="70" cy="104" r="3" fill="#FF8A65"/>
    <circle cx="332" cy="70" r="6" fill="#FF8A65"/>
    <circle cx="352" cy="92" r="3" fill="#5B82A6"/>
    <circle cx="200" cy="52" r="4" fill="#FF8A65"/>
    <circle cx="120" cy="150" r="4" fill="#FFFFFF"/>
    <circle cx="280" cy="156" r="3" fill="#FFFFFF"/>
  </g>
  <g filter="drop-shadow(0 6px 14px rgba(84,122,103,0.22))">
    <rect x="120" y="66" width="160" height="72" rx="14" fill="url(#card)"/>
    <rect x="120" y="66" width="160" height="72" rx="14" fill="none" stroke="#FF8A65" stroke-width="2" opacity="0.75"/>
    <rect x="140" y="84" width="62" height="8" rx="4" fill="#5B82A6"/>
    <rect x="212" y="84" width="48" height="8" rx="4" fill="#A3A395"/>
    <rect x="140" y="102" width="96" height="6" rx="3" fill="#C9C9BC"/>
    <rect x="140" y="116" width="70" height="6" rx="3" fill="#E8E4DB"/>
    <rect x="140" y="130" width="54" height="5" rx="2.5" fill="#FF8A65"/>
  </g>
</svg>
